<?xml version="1.0" encoding="UTF-8" standalone="no"?> <svg xmlns="http://www.w3.org/2000/svg" xmlns:xlink="http://www.w3.org/1999/xlink" width="675px" height="490px" viewBox="0 0 675 490"> <!-- Generator: Sketch 49.1 (51147) - http://www.bohemiancoding.com/sketch --> <title>Group 12 Copy</title> <desc>Created with Sketch.</desc> <defs> <polygon id="path-1" points="0 0 652 0 652 466 0 466 40 405.5 0 344 40 286.5 0 231.5 40 171 0 117.5 40 58.5"></polygon> <filter x="-4.6%" y="-3.0%" width="106.7%" height="109.4%" filterUnits="objectBoundingBox" id="filter-2"> <feOffset dx="-8" dy="8" in="SourceAlpha" result="shadowOffsetOuter1"></feOffset> <feGaussianBlur stdDeviation="6" in="shadowOffsetOuter1" result="shadowBlurOuter1"></feGaussianBlur> <feColorMatrix values="0 0 0 0 0 0 0 0 0 0 0 0 0 0 0 0 0 0 0.5 0" type="matrix" in="shadowBlurOuter1"></feColorMatrix> </filter> </defs> <g id="Page-1" stroke="none" stroke-width="1" fill="none" fill-rule="evenodd"> <g id="Group-12-Copy" transform="translate(19.000000, 4.000000)"> <g id="Rectangle-10-Copy-2"> <use fill="black" fill-opacity="1" filter="url(#filter-2)" xlink:href="#path-1"></use> <use fill="#FFBD08" fill-rule="evenodd" xlink:href="#path-1"></use> </g> <path d="M330.5,277.4 L330.5,288.15 C330.5,288.9 330.25,289.3 329.95,289.3 L312.15,289.3 C311.65,289.3 311.25,289.1 310.85,288.55 C310.4,288 307.95,284.8 296.25,284.8 C285.25,284.8 280.9,290.6 280.9,294.75 C280.9,303 291.25,303.85 297.85,303.85 C302.1,303.85 303.55,301.45 303.8,299.35 L293.5,299.35 C292.65,299.35 292,299.1 292,298.6 L292,293.4 C292,292.4 292.65,292.25 293.4,292.25 L341.3,292.25 C342.3,292.25 342.7,292.9 342.7,293.4 L342.7,298.1 C342.7,299.2 342,299.35 341,299.35 L330.75,299.35 L330.75,311.9 C330.75,312.9 330,313 329,313 L315.75,313 C314.6,313 314,312.9 313.4,312.15 L310.5,309.05 C306.65,312.8 298.8,313 289.3,313 C286.35,313 252.05,312.7 252.05,294.75 C252.05,276.25 279.3,275.5 288.5,275.5 C305.05,275.5 307.75,277.1 311.6,279.05 L312.2,276.6 C312.3,276.1 312.45,275.5 313.45,275.5 L328.95,275.5 C329.95,275.5 330.5,275.8 330.5,277.4 Z M383.15,275.5 L393.05,275.5 C416.1,275.5 430.7,284.2 430.7,293.15 C430.7,302.3 420.35,313 395.35,313 L386.3,313 C365.8,313 357.3,308.6 351.6,304.45 C347.2,301.2 345.9,296.6 345.9,293.7 C345.9,289.9 348.6,286.5 351.15,284.05 C355.5,279.9 366.6,275.5 383.15,275.5 Z M388.1,284.2 C381.7,284.2 375.55,288.7 375.55,293.75 C375.55,299.1 381.25,304.3 388.65,304.3 C397,304.3 401.5,299.1 401.5,294.6 C401.5,290.15 396.5,284.2 388.1,284.2 Z M472.4,275.5 L482.3,275.5 C505.35,275.5 519.95,284.2 519.95,293.15 C519.95,302.3 509.6,313 484.6,313 L475.55,313 C455.05,313 446.55,308.6 440.85,304.45 C436.45,301.2 435.15,296.6 435.15,293.7 C435.15,289.9 437.85,286.5 440.4,284.05 C444.75,279.9 455.85,275.5 472.4,275.5 Z M477.35,284.2 C470.95,284.2 464.8,288.7 464.8,293.75 C464.8,299.1 470.5,304.3 477.9,304.3 C486.25,304.3 490.75,299.1 490.75,294.6 C490.75,290.15 485.75,284.2 477.35,284.2 Z M535.25,304.1 L535.25,284.3 L524.2,284.3 C523.75,284.3 523.15,284.4 523.15,283.7 L523.15,276.5 C523.15,276.1 523.35,275.5 524.15,275.5 L577.85,275.5 C580.2,275.5 612.8,278.15 612.8,294.2 C612.8,310.2 586.55,313 575.35,313 L525.25,313 C524.25,313 523.15,313 523.15,311.75 L523.15,305.8 C523.15,305.05 523.25,304.1 524.25,304.1 L535.25,304.1 Z M560.7,284.3 L560.7,304.1 L569.9,304.1 C575.65,304.1 584.3,300.95 584.3,294.2 C584.3,287.15 574.85,284.3 572.4,284.3 L560.7,284.3 Z M254.7,342.7 L262.6,351.5 L270.6,342.7 L264.15,342.7 C263.8,342.7 263.4,342.7 263.4,342.4 L263.4,334.1 C263.4,333.8 263.75,333.5 264.55,333.5 L299.35,333.5 C299.75,333.5 300.3,333.8 300.3,334.05 L300.3,342.15 C300.3,342.45 300.15,342.7 299.75,342.7 L289.2,342.7 L263.5,370.7 C263.2,370.95 262.75,371 262.6,371 L249.8,371 C249.5,371 249.3,370.8 249.1,370.65 L223.3,342.7 L212.2,342.7 C211.8,342.7 211.3,342.55 211.3,341.95 L211.3,334.2 C211.3,333.85 211.6,333.5 212,333.5 L260.4,333.5 C260.95,333.5 261.4,333.6 261.4,334.2 L261.4,342.15 C261.4,342.45 261.15,342.7 260.7,342.7 L254.7,342.7 Z M302.4,342.4 L302.4,334.45 C302.4,333.8 302.75,333.5 303.2,333.5 L351.95,333.5 C352.4,333.5 353,333.6 353,333.95 L353,342.25 C353,342.75 352.65,342.95 352.25,342.95 L340.9,342.95 L340.9,361.65 L352.25,361.65 C352.75,361.65 353,361.85 353,362.2 L353,370.15 C353,370.75 352.9,371 352.25,371 L303.45,371 C302.65,371 302.4,370.65 302.4,370.3 L302.4,362.5 C302.4,361.8 302.75,361.55 303.05,361.55 L314.4,361.55 L314.4,342.9 L303.35,342.9 C302.8,342.9 302.4,342.7 302.4,342.4 Z M429.95,371 L355.8,371 C355.35,371 355,370.8 355,370.45 L355,362.85 C355,361.85 355.3,361.45 355.9,361.45 L367.1,361.45 L367.1,342.55 L356.35,342.55 C355.35,342.55 355.1,342.3 355.1,341.8 L355.1,334.85 C355.1,333.85 355.5,333.5 356,333.5 L425.6,333.5 C433.9,333.5 443.55,337.4 443.55,342.9 C443.55,347.8 436.8,350.9 433.65,352.45 C435.65,353.2 443.95,354.3 443.95,361.45 C443.95,369.65 431.55,371 429.95,371 Z M392.45,356.45 L392.45,361.75 L409.3,361.75 C412.35,361.75 414.8,360.95 414.8,359.4 C414.8,357.65 411.85,356.45 409.7,356.45 L392.45,356.45 Z M392.45,342.7 L392.45,347.9 L411.1,347.9 C412.55,347.9 414.8,346.85 414.8,345.4 C414.8,343.95 411.8,342.7 409.75,342.7 L392.45,342.7 Z M448.4,333.5 L531.5,333.5 C532.4,333.5 532.65,333.85 532.65,334.6 L532.65,348.85 C532.65,349.35 532.5,349.7 532,349.7 L514.8,349.7 C514.45,349.7 514.15,349.7 514.15,349.35 L514.15,343.05 L485.25,343.05 L485.25,347.8 L501.35,347.8 C501.85,347.8 502.05,347.9 502.05,348.3 L502.05,356.15 C502.05,356.55 501.45,356.65 500.85,356.65 L485.25,356.65 L485.25,361.7 L514.55,361.7 L514.55,355.6 C514.55,355.15 514.7,354.6 515.5,354.6 L533.8,354.6 C534.15,354.6 534.35,354.85 534.35,355.55 L534.35,370.3 C534.35,370.65 534.15,371 533.2,371 L448.4,371 C447.75,371 447.15,371.05 447.15,370.45 L447.15,362.55 C447.15,362.1 447.45,361.7 447.9,361.7 L459.25,361.7 L459.25,343 L447.85,343 C447.45,343 447.15,343.1 447.15,342.5 L447.15,333.95 C447.15,333.7 447.65,333.5 448.4,333.5 Z M592.65,336.35 L593.3,334.1 C593.4,333.7 593.85,333.55 594.25,333.55 L607.95,333.55 C608.9,333.55 609.25,334.25 609.25,334.6 L609.25,343.75 C609.25,344.1 609,344.35 608.6,344.35 L592.05,344.35 C591.85,344.35 591.6,344.35 591.5,344.1 C589.85,341.25 584.4,340.6 582.8,340.6 L567.45,340.6 C566.2,340.6 562.5,340.75 562.5,343.1 C562.5,345.6 568.5,345.5 570.5,345.5 L580.05,345.6 C585,345.6 596.5,346.55 599.5,347.2 C602.4,347.9 612.9,349.95 612.9,357.95 C612.9,369.4 592.3,371 585.15,371 L571.6,371 C565.95,371 559.95,369.25 556.4,367.6 L556.1,370.5 C556,370.9 555.7,371 555.35,371 L538.35,371 C538,371 537.85,370.8 537.85,370.4 L537.85,360.2 C537.85,359.95 538,359.6 538.4,359.6 L556.25,359.6 C556.65,359.6 556.9,359.8 557,360.15 C558,363.45 566.1,363.65 566.65,363.65 L584.7,363.65 C585.25,363.65 588.25,363.35 588.25,361.7 C588.25,359.8 585.45,359.25 584.75,359.25 L570.25,359.15 C566.4,359.15 554.85,357.95 550.25,356.65 C542.05,354.3 538.1,349.7 538.1,346.15 C538.1,341.15 543.55,338.2 546.3,336.75 C549.75,334.8 556.45,333.5 564.55,333.5 L578.3,333.5 C585.25,333.5 590.1,335.2 592.65,336.35 Z M286.05,391.5 L295.95,391.5 C319,391.5 333.6,400.2 333.6,409.15 C333.6,418.3 323.25,429 298.25,429 L289.2,429 C268.7,429 260.2,424.6 254.5,420.45 C250.1,417.2 248.8,412.6 248.8,409.7 C248.8,405.9 251.5,402.5 254.05,400.05 C258.4,395.9 269.5,391.5 286.05,391.5 Z M291,400.2 C284.6,400.2 278.45,404.7 278.45,409.75 C278.45,415.1 284.15,420.3 291.55,420.3 C299.9,420.3 304.4,415.1 304.4,410.6 C304.4,406.15 299.4,400.2 291,400.2 Z M338.1,391.5 L382.5,391.5 C383,391.5 383.55,391.75 384.05,392.1 L409.75,413.85 L409.75,400.95 L398.75,400.95 C398,400.95 397.6,400.7 397.6,400.3 L397.6,392.6 C397.6,392 397.95,391.5 398.3,391.5 L434,391.5 C434.9,391.5 435.1,392.25 435.1,392.75 L435.1,400.05 C435.1,400.7 434.6,400.95 433.95,400.95 L423.3,400.95 L423.3,427.65 C423.3,428.5 423.05,429 422.4,429 L391.6,429 C391.25,429 390.7,428.95 390.35,428.65 L362.2,404.8 L362.2,419.55 L373.75,419.55 C374.35,419.55 375,419.8 375,420.3 L375,427.9 C375,428.65 374.6,429 374,429 L337.55,429 C337.05,429 336.8,428.65 336.8,428 L336.8,420.45 C336.8,420.05 337.05,419.55 338.05,419.55 L348.9,419.55 L348.9,400.95 L337.7,400.95 C337.35,400.95 336.85,400.8 336.85,400.05 L336.85,392.25 C336.85,391.75 337.35,391.5 338.1,391.5 Z M524.2,413.75 L524.2,427.75 C524.2,428.65 523.6,429 523.1,429 L438.05,429 C437.55,429 437.05,428.65 437.05,428 L437.05,420.45 C437.05,420.05 437.35,419.55 438.35,419.55 L449.2,419.55 L449.2,400.95 L438.15,400.95 C437.55,400.95 437.15,400.55 437.15,400.05 L437.15,392.35 C437.15,391.85 437.55,391.5 438.3,391.5 L485.6,391.5 C486.35,391.5 486.95,391.85 486.95,392.85 L486.95,399.95 C486.95,400.55 486.6,400.95 485.95,400.95 L474.65,400.95 L474.65,419.55 L503.6,419.55 L503.6,413.85 C503.6,413.35 503.85,412.35 504.7,412.35 L522.95,412.35 C523.6,412.35 524.2,412.75 524.2,413.75 Z M587.45,400.7 L579.95,400.7 C579.4,400.7 579.05,400.45 579.05,400.15 L579.05,392.5 C579.05,391.85 579.35,391.5 579.85,391.5 L613,391.5 C613.4,391.5 614.05,391.6 614.05,391.95 L614.05,399.9 C614.05,400.4 613.8,400.7 613.4,400.7 L602,400.7 L583.15,415.7 L583.15,419.55 L596,419.55 C596.35,419.55 596.65,419.65 596.65,419.85 L596.65,428.4 C596.65,428.7 596.6,429 596.3,429 L544.4,429 C543.9,429 543.85,428.75 543.85,428.5 L543.85,420.05 C543.85,419.75 544.25,419.55 544.55,419.55 L557.3,419.55 L557.3,415.85 L538.4,400.7 L527.1,400.7 C526.55,400.7 526.2,400.5 526.2,400.2 L526.2,392.45 C526.2,391.8 526.7,391.5 527.2,391.5 L576,391.5 C576.65,391.5 577.05,391.6 577.05,391.95 L577.05,400.15 C577.05,400.65 576.8,400.7 576.4,400.7 L568.95,400.7 L577.55,408.75 L587.45,400.8 L587.45,400.7 Z" id="GOOD-VIBES-ONLY-Copy-2" fill="#D79E00"></path> </g> </g> </svg> 